<svg width="969" height="976" viewBox="0 0 969 976" fill="none" xmlns="http://www.w3.org/2000/svg">
<path d="M664.646 338.011L683.984 220.123C641.345 73.2064 570.962 -9.62846 551.194 7.15111C533.145 7.15116 596.746 149.993 579.987 202.913C557.678 260.715 531.855 330.697 522.831 349.197C530.03 408.994 612.76 430.7 653.191 401.86L664.646 338.011Z" fill="white"/>
<path d="M284.324 220.114L303.663 338.001L315.117 401.851C355.548 430.69 438.279 408.984 445.477 349.188C436.453 330.687 410.63 260.705 388.322 202.904C371.562 149.984 435.164 7.1416 417.114 7.14155C397.346 -9.63802 326.963 73.1968 284.324 220.114Z" fill="white"/>
<path d="M666.095 649.36C646.596 640.852 603.383 628.111 586.523 645.207C565.447 666.578 552.113 707.038 553.404 719.521C554.694 732.004 599.645 671.743 666.095 649.36Z" fill="white"/>
<path d="M302.213 649.351C321.712 640.843 364.925 628.101 381.785 645.198C402.861 666.568 416.195 707.029 414.905 719.511C413.614 731.994 368.663 671.733 302.213 649.351Z" fill="white"/>
<path d="M664.646 338.011C809.898 264.439 889.401 108.689 940.11 113.422C1005 138.807 928.377 554.51 777.238 604.764C784.544 604.764 801.733 607.776 801.733 614.229C801.733 620.683 734.339 636.438 726.958 645.207C799.155 625.846 898.425 668.01 897.566 692.534C896.706 717.058 828.377 805.689 732.545 782.456C754.032 799.236 774.784 839.059 767.784 852.586C764.86 860.659 735.45 846.722 704.612 836.237C714.066 852.586 709.769 889.587 699.455 883.994C675.52 859.153 662.315 847.776 640.15 843.981C618.95 886.002 562.457 970.044 484.154 970.043C405.851 970.044 349.358 885.992 328.158 843.972C305.994 847.767 292.789 859.144 268.853 883.984C258.54 889.578 254.242 852.576 263.697 836.227C232.859 846.713 203.449 860.65 200.525 852.576C193.524 839.05 214.276 799.226 235.763 782.446C139.931 805.68 71.6019 717.049 70.7424 692.525C69.883 668.001 169.153 625.836 241.35 645.198C233.969 636.429 166.575 620.674 166.575 614.22C166.575 607.766 183.765 604.754 191.07 604.754C39.9308 554.501 -36.693 138.797 28.198 113.412C78.9075 108.68 158.41 264.429 303.663 338.001M664.646 338.011L683.984 220.123C641.345 73.2064 570.962 -9.62846 551.194 7.15111C533.145 7.15116 596.746 149.993 579.987 202.913C557.678 260.715 531.855 330.697 522.831 349.197M664.646 338.011L653.191 401.86C612.76 430.7 530.03 408.994 522.831 349.197M522.831 349.197C513.965 346.726 499.37 344.486 484.154 344.484C468.938 344.486 454.343 346.716 445.477 349.188M303.663 338.001L284.324 220.114C326.963 73.1968 397.346 -9.63802 417.114 7.14155C435.164 7.1416 371.562 149.984 388.322 202.904C410.63 260.705 436.453 330.687 445.477 349.188M303.663 338.001L315.117 401.851C355.548 430.69 438.279 408.984 445.477 349.188M666.095 649.36C646.596 640.852 603.383 628.111 586.523 645.207C565.447 666.578 552.113 707.038 553.404 719.521C554.694 732.004 599.645 671.743 666.095 649.36ZM302.213 649.351C321.712 640.843 364.925 628.101 381.785 645.198C402.861 666.568 416.195 707.029 414.905 719.511C413.614 731.994 368.663 671.733 302.213 649.351Z" stroke="white" stroke-width="10" stroke-linejoin="round"/>
<path d="M284.324 220.114L303.663 338.001L315.117 401.851C355.548 430.69 438.279 408.984 445.477 349.188C436.453 330.687 410.63 260.705 388.322 202.904C371.562 149.984 435.164 7.1416 417.114 7.14155C397.346 -9.63802 326.963 73.1968 284.324 220.114Z" fill="white"/>
<path d="M664.646 338.011L683.984 220.123C641.345 73.2064 570.962 -9.62846 551.194 7.15111C533.145 7.15116 596.746 149.993 579.987 202.913C557.678 260.715 531.855 330.697 522.831 349.197C530.03 408.994 612.76 430.7 653.191 401.86L664.646 338.011Z" fill="white"/>
<path d="M666.095 649.36C646.596 640.852 603.383 628.111 586.523 645.207C565.447 666.578 552.113 707.038 553.403 719.521C554.694 732.004 599.645 671.743 666.095 649.36Z" fill="white"/>
<path d="M302.213 649.351C321.712 640.843 364.925 628.101 381.785 645.198C402.861 666.568 416.195 707.029 414.905 719.511C413.614 731.994 368.663 671.733 302.213 649.351Z" fill="white"/>
</svg>
